<svg xmlns="http://www.w3.org/2000/svg" width="375" viewBox="0 0 375 375" height="375" version="1.0"><path fill="#FFF" d="M-37.5 -37.5H412.5V412.5H-37.5z"/><path fill="#FFF" d="M-37.5 -37.5H412.5V412.5H-37.5z"/><path fill="#FFF" d="M-37.5 -37.5H412.5V412.5H-37.5z"/><path fill="#FF914D" d="M 156.066406 167.714844 C 156.066406 189.253906 138.605469 206.714844 117.066406 206.714844 C 95.527344 206.714844 78.066406 189.253906 78.066406 167.714844 C 78.066406 146.175781 95.527344 128.714844 117.066406 128.714844 C 138.605469 128.714844 156.066406 146.175781 156.066406 167.714844"/><g fill="#FFF"><g><g><path d="M 7.109375 -5.921875 C 7.609375 -6.472656 8.210938 -6.832031 8.921875 -7 C 9.640625 -7.175781 10.347656 -7.140625 11.046875 -6.890625 C 11.679688 -6.640625 12.269531 -6.378906 12.8125 -6.109375 C 13.363281 -5.835938 13.773438 -5.648438 14.046875 -5.546875 C 14.316406 -5.453125 14.625 -5.359375 14.96875 -5.265625 C 16.550781 -5.015625 18.351562 -5.160156 20.375 -5.703125 C 22.351562 -6.242188 24.132812 -7.109375 25.71875 -8.296875 C 29.125 -10.816406 30.429688 -13.660156 29.640625 -16.828125 C 29.441406 -17.765625 28.234375 -19.125 26.015625 -20.90625 C 25.421875 -21.394531 24.53125 -22.0625 23.34375 -22.90625 L 22.375 -23.640625 C 22.132812 -23.835938 21.9375 -24.007812 21.78125 -24.15625 C 21.539062 -24.40625 21.34375 -24.65625 21.1875 -24.90625 C 20.644531 -25.894531 20.570312 -26.90625 20.96875 -27.9375 C 21.8125 -30.0625 23.640625 -31.078125 26.453125 -30.984375 L 27.9375 -30.828125 C 29.21875 -31.273438 30.351562 -32.140625 31.34375 -33.421875 C 32.332031 -34.703125 32.953125 -36.0625 33.203125 -37.5 C 33.398438 -38.976562 33.328125 -39.96875 32.984375 -40.46875 C 32.785156 -40.707031 32.335938 -40.851562 31.640625 -40.90625 C 30.609375 -41.007812 29.363281 -40.835938 27.90625 -40.390625 C 26.445312 -39.941406 25.125 -39.375 23.9375 -38.6875 C 20.820312 -36.851562 18.363281 -34.566406 16.5625 -31.828125 C 14.757812 -29.085938 13.140625 -25.519531 11.703125 -21.125 C 11.109375 -19.394531 10.316406 -16.800781 9.328125 -13.34375 C 8.347656 -9.882812 7.609375 -7.410156 7.109375 -5.921875 Z M -7.9375 9.9375 C -6.25 7.707031 -4.738281 5.144531 -3.40625 2.25 C -2.070312 -0.632812 -1.046875 -3.175781 -0.328125 -5.375 C 0.378906 -7.570312 1.273438 -10.570312 2.359375 -14.375 C 3.453125 -18.175781 4.347656 -21.164062 5.046875 -23.34375 C 5.828125 -25.71875 6.625 -27.804688 7.4375 -29.609375 C 8.257812 -31.410156 9.265625 -33.273438 10.453125 -35.203125 C 11.640625 -37.128906 13.054688 -38.878906 14.703125 -40.453125 C 16.359375 -42.035156 18.25 -43.472656 20.375 -44.765625 C 22.0625 -45.703125 23.976562 -46.488281 26.125 -47.125 C 28.269531 -47.769531 30.304688 -48.019531 32.234375 -47.875 C 35.003906 -47.625 37.128906 -46.535156 38.609375 -44.609375 C 40.140625 -42.585938 40.609375 -39.875 40.015625 -36.46875 C 39.671875 -34.144531 38.769531 -31.929688 37.3125 -29.828125 C 35.851562 -27.722656 34.0625 -26.101562 31.9375 -24.96875 C 34.40625 -22.75 35.914062 -20.578125 36.46875 -18.453125 C 37.25 -15.285156 36.972656 -12.347656 35.640625 -9.640625 C 34.359375 -6.960938 32.429688 -4.660156 29.859375 -2.734375 C 27.492188 -1.003906 24.878906 0.25 22.015625 1.03125 C 19.148438 1.820312 16.40625 2 13.78125 1.5625 C 13.1875 1.457031 12.519531 1.269531 11.78125 1 C 11.039062 0.726562 10.300781 0.441406 9.5625 0.140625 L 8.515625 -0.375 C 7.179688 -0.914062 6.441406 -1.898438 6.296875 -3.328125 C 3.921875 3.785156 1.054688 9.585938 -2.296875 14.078125 C -2.890625 14.867188 -3.664062 15.328125 -4.625 15.453125 C -5.59375 15.578125 -6.457031 15.351562 -7.21875 14.78125 C -7.988281 14.21875 -8.4375 13.453125 -8.5625 12.484375 C -8.6875 11.523438 -8.476562 10.675781 -7.9375 9.9375 Z M -7.9375 9.9375" transform="translate(95.333 179.483)"/></g></g></g><g fill="#FFF"><g><g><path d="M 4.410156 -17.371094 L 4.980469 -13.90625 L 1.726562 -15.382812 L 0.972656 -12.796875 L 4.445312 -12.234375 L 1.964844 -9.628906 L 4.164062 -8.074219 L 5.863281 -11.238281 L 7.738281 -8.191406 L 9.859375 -9.828125 L 7.253906 -12.28125 L 10.738281 -13.019531 L 9.859375 -15.566406 L 6.707031 -13.925781 L 7.097656 -17.441406 Z M 4.410156 -17.371094" transform="translate(101.228 205.702)"/></g></g></g><g fill="#FFF"><g><g><path d="M 4.410156 -17.371094 L 4.980469 -13.90625 L 1.726562 -15.382812 L 0.972656 -12.796875 L 4.445312 -12.234375 L 1.964844 -9.628906 L 4.164062 -8.074219 L 5.863281 -11.238281 L 7.738281 -8.191406 L 9.859375 -9.828125 L 7.253906 -12.28125 L 10.738281 -13.019531 L 9.859375 -15.566406 L 6.707031 -13.925781 L 7.097656 -17.441406 Z M 4.410156 -17.371094" transform="translate(113.584 205.39)"/></g></g></g><g fill="#FFF"><g><g><path d="M 4.410156 -17.371094 L 4.980469 -13.90625 L 1.726562 -15.382812 L 0.972656 -12.796875 L 4.445312 -12.234375 L 1.964844 -9.628906 L 4.164062 -8.074219 L 5.863281 -11.238281 L 7.738281 -8.191406 L 9.859375 -9.828125 L 7.253906 -12.28125 L 10.738281 -13.019531 L 9.859375 -15.566406 L 6.707031 -13.925781 L 7.097656 -17.441406 Z M 4.410156 -17.371094" transform="translate(125.94 205.08)"/></g></g></g></svg>